<svg width="65" height="13" viewBox="0 0 65 13" fill="none" xmlns="http://www.w3.org/2000/svg">
<mask id="path-1-outside-1_13_2" maskUnits="userSpaceOnUse" x="-1" y="-1" width="67" height="15" fill="black">
<rect fill="white" x="-1" y="-1" width="67" height="15"/>
<path d="M5.71023 4C5.7358 3.71875 5.66761 3.49858 5.50568 3.33949C5.34375 3.17756 5.07102 3.09659 4.6875 3.09659C4.44318 3.09659 4.23864 3.125 4.07386 3.18182C3.91193 3.23864 3.78551 3.31676 3.6946 3.41619C3.60653 3.51562 3.55114 3.63068 3.52841 3.76136C3.50284 3.86364 3.50426 3.95739 3.53267 4.04261C3.56392 4.125 3.62216 4.20028 3.70739 4.26847C3.79545 4.33665 3.91051 4.39773 4.05256 4.4517C4.19744 4.50568 4.36932 4.55398 4.56818 4.59659L5.25 4.75C5.71591 4.85227 6.10653 4.98722 6.42188 5.15483C6.74006 5.3196 6.99006 5.51562 7.17188 5.7429C7.35369 5.97017 7.47301 6.22443 7.52983 6.50568C7.58949 6.78693 7.59091 7.09375 7.53409 7.42614C7.4375 8 7.21449 8.4858 6.86506 8.88352C6.51563 9.28125 6.05966 9.58381 5.49716 9.79119C4.93466 9.99858 4.28409 10.1023 3.54545 10.1023C2.78977 10.1023 2.14773 9.99006 1.61932 9.76562C1.09375 9.53835 0.713068 9.19176 0.477273 8.72585C0.244318 8.2571 0.1875 7.65909 0.306818 6.93182H2.55682C2.52273 7.19886 2.55114 7.4233 2.64205 7.60511C2.73295 7.78693 2.87926 7.92472 3.08097 8.01847C3.28267 8.11222 3.53409 8.15909 3.83523 8.15909C4.09091 8.15909 4.30966 8.12784 4.49148 8.06534C4.6733 8.00284 4.81676 7.91619 4.92188 7.8054C5.02699 7.6946 5.09091 7.56818 5.11364 7.42614C5.13636 7.29545 5.11364 7.17898 5.04545 7.0767C4.97727 6.97443 4.85369 6.8821 4.67472 6.79972C4.49574 6.71733 4.25 6.64205 3.9375 6.57386L3.10227 6.38636C2.3608 6.21591 1.80114 5.93466 1.4233 5.54261C1.04545 5.15057 0.911932 4.61364 1.02273 3.93182C1.11364 3.375 1.34233 2.8892 1.70881 2.47443C2.07813 2.05682 2.54688 1.73295 3.11506 1.50284C3.68608 1.26989 4.31818 1.15341 5.01136 1.15341C5.71591 1.15341 6.3054 1.27131 6.77983 1.5071C7.2571 1.7429 7.59943 2.07386 7.80682 2.5C8.01705 2.92614 8.07386 3.42614 7.97727 4H5.71023ZM11.1797 10.1193C10.4695 10.1193 9.88423 9.97869 9.42401 9.69744C8.96662 9.41335 8.6456 9.01847 8.46094 8.51278C8.27628 8.00426 8.23935 7.41477 8.35014 6.74432C8.46094 6.07386 8.69247 5.4858 9.04474 4.98011C9.39702 4.47159 9.85014 4.0767 10.4041 3.79545C10.9581 3.51136 11.5916 3.36932 12.3047 3.36932C13.0121 3.36932 13.5945 3.51136 14.0518 3.79545C14.5121 4.0767 14.8345 4.47159 15.0192 4.98011C15.2067 5.4858 15.245 6.07386 15.1342 6.74432C15.0234 7.41477 14.7905 8.00426 14.4354 8.51278C14.0803 9.01847 13.6257 9.41335 13.0717 9.69744C12.5206 9.97869 11.8899 10.1193 11.1797 10.1193ZM11.4695 8.38068C11.674 8.38068 11.8601 8.31392 12.0277 8.1804C12.1982 8.04687 12.343 7.85653 12.4624 7.60938C12.5845 7.36222 12.674 7.06818 12.7308 6.72727C12.7876 6.38352 12.7962 6.08949 12.7564 5.84517C12.7166 5.59801 12.6342 5.40767 12.5092 5.27415C12.3842 5.14062 12.2195 5.07386 12.0149 5.07386C11.8104 5.07386 11.6229 5.14062 11.4524 5.27415C11.282 5.40767 11.1371 5.59801 11.0178 5.84517C10.8984 6.08949 10.8104 6.38352 10.7536 6.72727C10.6967 7.06818 10.6868 7.36222 10.7237 7.60938C10.7635 7.85653 10.8459 8.04687 10.9709 8.1804C11.0987 8.31392 11.2649 8.38068 11.4695 8.38068ZM18.5263 6.31818L17.9126 10H15.5604L16.6513 3.45455H18.8842L18.6797 4.69886H18.7479C18.9553 4.28125 19.2578 3.95597 19.6555 3.72301C20.0561 3.48722 20.4979 3.36932 20.9808 3.36932C21.4439 3.36932 21.8288 3.47443 22.1357 3.68466C22.4425 3.89489 22.6598 4.18466 22.7876 4.55398C22.9155 4.9233 22.9382 5.34659 22.8558 5.82386L22.157 10H19.8047L20.4183 6.31818C20.4723 5.99432 20.4325 5.74006 20.299 5.5554C20.1683 5.37074 19.9524 5.27841 19.6513 5.27841C19.4609 5.27841 19.2862 5.32102 19.1271 5.40625C18.9709 5.48864 18.8402 5.60795 18.7351 5.7642C18.6328 5.91761 18.5632 6.10227 18.5263 6.31818ZM23.3011 10L24.392 3.45455H26.7443L25.6534 10H23.3011ZM25.6705 2.77273C25.3523 2.77273 25.0952 2.66761 24.8991 2.45739C24.7031 2.24432 24.6307 1.99148 24.6818 1.69886C24.733 1.40057 24.8892 1.14773 25.1506 0.940341C25.4119 0.730114 25.7017 0.625 26.0199 0.625C26.3409 0.625 26.5966 0.730114 26.7869 0.940341C26.9773 1.14773 27.0483 1.40057 27 1.69886C26.9545 1.99148 26.8011 2.24432 26.5398 2.45739C26.2813 2.66761 25.9915 2.77273 25.6705 2.77273ZM29.9883 10.1193C29.2781 10.1193 28.6928 9.97869 28.2326 9.69744C27.7724 9.41335 27.4499 9.01847 27.2653 8.51278C27.0806 8.00426 27.0451 7.41477 27.1587 6.74432C27.2667 6.07386 27.4968 5.4858 27.8491 4.98011C28.2042 4.47159 28.6587 4.0767 29.2127 3.79545C29.7695 3.51136 30.4031 3.36932 31.1133 3.36932C31.7553 3.36932 32.2908 3.4858 32.7198 3.71875C33.1516 3.94886 33.4599 4.27557 33.6445 4.69886C33.832 5.11932 33.8803 5.61364 33.7894 6.18182H31.6076C31.6332 5.84091 31.5778 5.57955 31.4414 5.39773C31.3079 5.21591 31.1133 5.125 30.8576 5.125C30.6474 5.125 30.4542 5.18466 30.2781 5.30398C30.1048 5.42045 29.9556 5.59801 29.8306 5.83665C29.7085 6.07244 29.619 6.36932 29.5621 6.72727C29.5053 7.08523 29.4982 7.38352 29.5408 7.62216C29.5863 7.85795 29.6744 8.03551 29.805 8.15483C29.9386 8.27131 30.1076 8.32955 30.3121 8.32955C30.4883 8.32955 30.6502 8.28977 30.7979 8.21023C30.9485 8.12784 31.0778 8.00852 31.1857 7.85227C31.2965 7.69318 31.3803 7.5 31.4371 7.27273H33.619C33.511 7.85227 33.2937 8.35511 32.967 8.78125C32.6403 9.20739 32.2241 9.53693 31.7184 9.76989C31.2127 10.0028 30.636 10.1193 29.9883 10.1193ZM39.7884 4C39.8139 3.71875 39.7457 3.49858 39.5838 3.33949C39.4219 3.17756 39.1491 3.09659 38.7656 3.09659C38.5213 3.09659 38.3168 3.125 38.152 3.18182C37.9901 3.23864 37.8636 3.31676 37.7727 3.41619C37.6847 3.51562 37.6293 3.63068 37.6065 3.76136C37.581 3.86364 37.5824 3.95739 37.6108 4.04261C37.642 4.125 37.7003 4.20028 37.7855 4.26847C37.8736 4.33665 37.9886 4.39773 38.1307 4.4517C38.2756 4.50568 38.4474 4.55398 38.6463 4.59659L39.3281 4.75C39.794 4.85227 40.1847 4.98722 40.5 5.15483C40.8182 5.3196 41.0682 5.51562 41.25 5.7429C41.4318 5.97017 41.5511 6.22443 41.608 6.50568C41.6676 6.78693 41.669 7.09375 41.6122 7.42614C41.5156 8 41.2926 8.4858 40.9432 8.88352C40.5938 9.28125 40.1378 9.58381 39.5753 9.79119C39.0128 9.99858 38.3622 10.1023 37.6236 10.1023C36.8679 10.1023 36.2259 9.99006 35.6974 9.76562C35.1719 9.53835 34.7912 9.19176 34.5554 8.72585C34.3224 8.2571 34.2656 7.65909 34.3849 6.93182H36.6349C36.6009 7.19886 36.6293 7.4233 36.7202 7.60511C36.8111 7.78693 36.9574 7.92472 37.1591 8.01847C37.3608 8.11222 37.6122 8.15909 37.9134 8.15909C38.169 8.15909 38.3878 8.12784 38.5696 8.06534C38.7514 8.00284 38.8949 7.91619 39 7.8054C39.1051 7.6946 39.169 7.56818 39.1918 7.42614C39.2145 7.29545 39.1918 7.17898 39.1236 7.0767C39.0554 6.97443 38.9318 6.8821 38.7528 6.79972C38.5739 6.71733 38.3281 6.64205 38.0156 6.57386L37.1804 6.38636C36.4389 6.21591 35.8793 5.93466 35.5014 5.54261C35.1236 5.15057 34.9901 4.61364 35.1009 3.93182C35.1918 3.375 35.4205 2.8892 35.7869 2.47443C36.1563 2.05682 36.625 1.73295 37.1932 1.50284C37.7642 1.26989 38.3963 1.15341 39.0895 1.15341C39.794 1.15341 40.3835 1.27131 40.858 1.5071C41.3352 1.7429 41.6776 2.07386 41.8849 2.5C42.0952 2.92614 42.152 3.42614 42.0554 4H39.7884ZM43.1527 12.4545C42.88 12.4545 42.6257 12.4332 42.3899 12.3906C42.1541 12.3509 41.9482 12.2955 41.772 12.2244L42.5646 10.554C42.7464 10.6222 42.9141 10.6662 43.0675 10.6861C43.2237 10.706 43.3615 10.6946 43.4808 10.652C43.6001 10.6094 43.6982 10.5284 43.7749 10.4091L43.8516 10.2898L42.6839 3.45455H45.0533L45.3516 7.98864H45.4197L47.2521 3.45455H49.8089L46.2464 10.5455C46.0646 10.9062 45.8374 11.2301 45.5646 11.517C45.2947 11.8068 44.9624 12.0355 44.5675 12.2031C44.1726 12.3707 43.701 12.4545 43.1527 12.4545ZM52.37 6.31818L51.7564 10H49.4041L50.495 3.45455H52.728L52.5234 4.69886H52.5916C52.799 4.28125 53.1016 3.95597 53.4993 3.72301C53.8999 3.48722 54.3416 3.36932 54.8246 3.36932C55.2876 3.36932 55.6726 3.47443 55.9794 3.68466C56.2862 3.89489 56.5036 4.18466 56.6314 4.55398C56.7592 4.9233 56.782 5.34659 56.6996 5.82386L56.0007 10H53.6484L54.2621 6.31818C54.3161 5.99432 54.2763 5.74006 54.1428 5.5554C54.0121 5.37074 53.7962 5.27841 53.495 5.27841C53.3047 5.27841 53.13 5.32102 52.9709 5.40625C52.8146 5.48864 52.6839 5.60795 52.5788 5.7642C52.4766 5.91761 52.407 6.10227 52.37 6.31818ZM60.2812 10.1193C59.571 10.1193 58.9858 9.97869 58.5256 9.69744C58.0653 9.41335 57.7429 9.01847 57.5582 8.51278C57.3736 8.00426 57.3381 7.41477 57.4517 6.74432C57.5597 6.07386 57.7898 5.4858 58.142 4.98011C58.4972 4.47159 58.9517 4.0767 59.5057 3.79545C60.0625 3.51136 60.696 3.36932 61.4062 3.36932C62.0483 3.36932 62.5838 3.4858 63.0128 3.71875C63.4446 3.94886 63.7528 4.27557 63.9375 4.69886C64.125 5.11932 64.1733 5.61364 64.0824 6.18182H61.9006C61.9261 5.84091 61.8707 5.57955 61.7344 5.39773C61.6009 5.21591 61.4062 5.125 61.1506 5.125C60.9403 5.125 60.7472 5.18466 60.571 5.30398C60.3977 5.42045 60.2486 5.59801 60.1236 5.83665C60.0014 6.07244 59.9119 6.36932 59.8551 6.72727C59.7983 7.08523 59.7912 7.38352 59.8338 7.62216C59.8793 7.85795 59.9673 8.03551 60.098 8.15483C60.2315 8.27131 60.4006 8.32955 60.6051 8.32955C60.7813 8.32955 60.9432 8.28977 61.0909 8.21023C61.2415 8.12784 61.3707 8.00852 61.4787 7.85227C61.5895 7.69318 61.6733 7.5 61.7301 7.27273H63.9119C63.804 7.85227 63.5866 8.35511 63.2599 8.78125C62.9332 9.20739 62.517 9.53693 62.0114 9.76989C61.5057 10.0028 60.929 10.1193 60.2812 10.1193Z"/>
</mask>
<path d="M5.71023 4C5.7358 3.71875 5.66761 3.49858 5.50568 3.33949C5.34375 3.17756 5.07102 3.09659 4.6875 3.09659C4.44318 3.09659 4.23864 3.125 4.07386 3.18182C3.91193 3.23864 3.78551 3.31676 3.6946 3.41619C3.60653 3.51562 3.55114 3.63068 3.52841 3.76136C3.50284 3.86364 3.50426 3.95739 3.53267 4.04261C3.56392 4.125 3.62216 4.20028 3.70739 4.26847C3.79545 4.33665 3.91051 4.39773 4.05256 4.4517C4.19744 4.50568 4.36932 4.55398 4.56818 4.59659L5.25 4.75C5.71591 4.85227 6.10653 4.98722 6.42188 5.15483C6.74006 5.3196 6.99006 5.51562 7.17188 5.7429C7.35369 5.97017 7.47301 6.22443 7.52983 6.50568C7.58949 6.78693 7.59091 7.09375 7.53409 7.42614C7.4375 8 7.21449 8.4858 6.86506 8.88352C6.51563 9.28125 6.05966 9.58381 5.49716 9.79119C4.93466 9.99858 4.28409 10.1023 3.54545 10.1023C2.78977 10.1023 2.14773 9.99006 1.61932 9.76562C1.09375 9.53835 0.713068 9.19176 0.477273 8.72585C0.244318 8.2571 0.1875 7.65909 0.306818 6.93182H2.55682C2.52273 7.19886 2.55114 7.4233 2.64205 7.60511C2.73295 7.78693 2.87926 7.92472 3.08097 8.01847C3.28267 8.11222 3.53409 8.15909 3.83523 8.15909C4.09091 8.15909 4.30966 8.12784 4.49148 8.06534C4.6733 8.00284 4.81676 7.91619 4.92188 7.8054C5.02699 7.6946 5.09091 7.56818 5.11364 7.42614C5.13636 7.29545 5.11364 7.17898 5.04545 7.0767C4.97727 6.97443 4.85369 6.8821 4.67472 6.79972C4.49574 6.71733 4.25 6.64205 3.9375 6.57386L3.10227 6.38636C2.3608 6.21591 1.80114 5.93466 1.4233 5.54261C1.04545 5.15057 0.911932 4.61364 1.02273 3.93182C1.11364 3.375 1.34233 2.8892 1.70881 2.47443C2.07813 2.05682 2.54688 1.73295 3.11506 1.50284C3.68608 1.26989 4.31818 1.15341 5.01136 1.15341C5.71591 1.15341 6.3054 1.27131 6.77983 1.5071C7.2571 1.7429 7.59943 2.07386 7.80682 2.5C8.01705 2.92614 8.07386 3.42614 7.97727 4H5.71023ZM11.1797 10.1193C10.4695 10.1193 9.88423 9.97869 9.42401 9.69744C8.96662 9.41335 8.6456 9.01847 8.46094 8.51278C8.27628 8.00426 8.23935 7.41477 8.35014 6.74432C8.46094 6.07386 8.69247 5.4858 9.04474 4.98011C9.39702 4.47159 9.85014 4.0767 10.4041 3.79545C10.9581 3.51136 11.5916 3.36932 12.3047 3.36932C13.0121 3.36932 13.5945 3.51136 14.0518 3.79545C14.5121 4.0767 14.8345 4.47159 15.0192 4.98011C15.2067 5.4858 15.245 6.07386 15.1342 6.74432C15.0234 7.41477 14.7905 8.00426 14.4354 8.51278C14.0803 9.01847 13.6257 9.41335 13.0717 9.69744C12.5206 9.97869 11.8899 10.1193 11.1797 10.1193ZM11.4695 8.38068C11.674 8.38068 11.8601 8.31392 12.0277 8.1804C12.1982 8.04687 12.343 7.85653 12.4624 7.60938C12.5845 7.36222 12.674 7.06818 12.7308 6.72727C12.7876 6.38352 12.7962 6.08949 12.7564 5.84517C12.7166 5.59801 12.6342 5.40767 12.5092 5.27415C12.3842 5.14062 12.2195 5.07386 12.0149 5.07386C11.8104 5.07386 11.6229 5.14062 11.4524 5.27415C11.282 5.40767 11.1371 5.59801 11.0178 5.84517C10.8984 6.08949 10.8104 6.38352 10.7536 6.72727C10.6967 7.06818 10.6868 7.36222 10.7237 7.60938C10.7635 7.85653 10.8459 8.04687 10.9709 8.1804C11.0987 8.31392 11.2649 8.38068 11.4695 8.38068ZM18.5263 6.31818L17.9126 10H15.5604L16.6513 3.45455H18.8842L18.6797 4.69886H18.7479C18.9553 4.28125 19.2578 3.95597 19.6555 3.72301C20.0561 3.48722 20.4979 3.36932 20.9808 3.36932C21.4439 3.36932 21.8288 3.47443 22.1357 3.68466C22.4425 3.89489 22.6598 4.18466 22.7876 4.55398C22.9155 4.9233 22.9382 5.34659 22.8558 5.82386L22.157 10H19.8047L20.4183 6.31818C20.4723 5.99432 20.4325 5.74006 20.299 5.5554C20.1683 5.37074 19.9524 5.27841 19.6513 5.27841C19.4609 5.27841 19.2862 5.32102 19.1271 5.40625C18.9709 5.48864 18.8402 5.60795 18.7351 5.7642C18.6328 5.91761 18.5632 6.10227 18.5263 6.31818ZM23.3011 10L24.392 3.45455H26.7443L25.6534 10H23.3011ZM25.6705 2.77273C25.3523 2.77273 25.0952 2.66761 24.8991 2.45739C24.7031 2.24432 24.6307 1.99148 24.6818 1.69886C24.733 1.40057 24.8892 1.14773 25.1506 0.940341C25.4119 0.730114 25.7017 0.625 26.0199 0.625C26.3409 0.625 26.5966 0.730114 26.7869 0.940341C26.9773 1.14773 27.0483 1.40057 27 1.69886C26.9545 1.99148 26.8011 2.24432 26.5398 2.45739C26.2813 2.66761 25.9915 2.77273 25.6705 2.77273ZM29.9883 10.1193C29.2781 10.1193 28.6928 9.97869 28.2326 9.69744C27.7724 9.41335 27.4499 9.01847 27.2653 8.51278C27.0806 8.00426 27.0451 7.41477 27.1587 6.74432C27.2667 6.07386 27.4968 5.4858 27.8491 4.98011C28.2042 4.47159 28.6587 4.0767 29.2127 3.79545C29.7695 3.51136 30.4031 3.36932 31.1133 3.36932C31.7553 3.36932 32.2908 3.4858 32.7198 3.71875C33.1516 3.94886 33.4599 4.27557 33.6445 4.69886C33.832 5.11932 33.8803 5.61364 33.7894 6.18182H31.6076C31.6332 5.84091 31.5778 5.57955 31.4414 5.39773C31.3079 5.21591 31.1133 5.125 30.8576 5.125C30.6474 5.125 30.4542 5.18466 30.2781 5.30398C30.1048 5.42045 29.9556 5.59801 29.8306 5.83665C29.7085 6.07244 29.619 6.36932 29.5621 6.72727C29.5053 7.08523 29.4982 7.38352 29.5408 7.62216C29.5863 7.85795 29.6744 8.03551 29.805 8.15483C29.9386 8.27131 30.1076 8.32955 30.3121 8.32955C30.4883 8.32955 30.6502 8.28977 30.7979 8.21023C30.9485 8.12784 31.0778 8.00852 31.1857 7.85227C31.2965 7.69318 31.3803 7.5 31.4371 7.27273H33.619C33.511 7.85227 33.2937 8.35511 32.967 8.78125C32.6403 9.20739 32.2241 9.53693 31.7184 9.76989C31.2127 10.0028 30.636 10.1193 29.9883 10.1193ZM39.7884 4C39.8139 3.71875 39.7457 3.49858 39.5838 3.33949C39.4219 3.17756 39.1491 3.09659 38.7656 3.09659C38.5213 3.09659 38.3168 3.125 38.152 3.18182C37.9901 3.23864 37.8636 3.31676 37.7727 3.41619C37.6847 3.51562 37.6293 3.63068 37.6065 3.76136C37.581 3.86364 37.5824 3.95739 37.6108 4.04261C37.642 4.125 37.7003 4.20028 37.7855 4.26847C37.8736 4.33665 37.9886 4.39773 38.1307 4.4517C38.2756 4.50568 38.4474 4.55398 38.6463 4.59659L39.3281 4.75C39.794 4.85227 40.1847 4.98722 40.5 5.15483C40.8182 5.3196 41.0682 5.51562 41.25 5.7429C41.4318 5.97017 41.5511 6.22443 41.608 6.50568C41.6676 6.78693 41.669 7.09375 41.6122 7.42614C41.5156 8 41.2926 8.4858 40.9432 8.88352C40.5938 9.28125 40.1378 9.58381 39.5753 9.79119C39.0128 9.99858 38.3622 10.1023 37.6236 10.1023C36.8679 10.1023 36.2259 9.99006 35.6974 9.76562C35.1719 9.53835 34.7912 9.19176 34.5554 8.72585C34.3224 8.2571 34.2656 7.65909 34.3849 6.93182H36.6349C36.6009 7.19886 36.6293 7.4233 36.7202 7.60511C36.8111 7.78693 36.9574 7.92472 37.1591 8.01847C37.3608 8.11222 37.6122 8.15909 37.9134 8.15909C38.169 8.15909 38.3878 8.12784 38.5696 8.06534C38.7514 8.00284 38.8949 7.91619 39 7.8054C39.1051 7.6946 39.169 7.56818 39.1918 7.42614C39.2145 7.29545 39.1918 7.17898 39.1236 7.0767C39.0554 6.97443 38.9318 6.8821 38.7528 6.79972C38.5739 6.71733 38.3281 6.64205 38.0156 6.57386L37.1804 6.38636C36.4389 6.21591 35.8793 5.93466 35.5014 5.54261C35.1236 5.15057 34.9901 4.61364 35.1009 3.93182C35.1918 3.375 35.4205 2.8892 35.7869 2.47443C36.1563 2.05682 36.625 1.73295 37.1932 1.50284C37.7642 1.26989 38.3963 1.15341 39.0895 1.15341C39.794 1.15341 40.3835 1.27131 40.858 1.5071C41.3352 1.7429 41.6776 2.07386 41.8849 2.5C42.0952 2.92614 42.152 3.42614 42.0554 4H39.7884ZM43.1527 12.4545C42.88 12.4545 42.6257 12.4332 42.3899 12.3906C42.1541 12.3509 41.9482 12.2955 41.772 12.2244L42.5646 10.554C42.7464 10.6222 42.9141 10.6662 43.0675 10.6861C43.2237 10.706 43.3615 10.6946 43.4808 10.652C43.6001 10.6094 43.6982 10.5284 43.7749 10.4091L43.8516 10.2898L42.6839 3.45455H45.0533L45.3516 7.98864H45.4197L47.2521 3.45455H49.8089L46.2464 10.5455C46.0646 10.9062 45.8374 11.2301 45.5646 11.517C45.2947 11.8068 44.9624 12.0355 44.5675 12.2031C44.1726 12.3707 43.701 12.4545 43.1527 12.4545ZM52.37 6.31818L51.7564 10H49.4041L50.495 3.45455H52.728L52.5234 4.69886H52.5916C52.799 4.28125 53.1016 3.95597 53.4993 3.72301C53.8999 3.48722 54.3416 3.36932 54.8246 3.36932C55.2876 3.36932 55.6726 3.47443 55.9794 3.68466C56.2862 3.89489 56.5036 4.18466 56.6314 4.55398C56.7592 4.9233 56.782 5.34659 56.6996 5.82386L56.0007 10H53.6484L54.2621 6.31818C54.3161 5.99432 54.2763 5.74006 54.1428 5.5554C54.0121 5.37074 53.7962 5.27841 53.495 5.27841C53.3047 5.27841 53.13 5.32102 52.9709 5.40625C52.8146 5.48864 52.6839 5.60795 52.5788 5.7642C52.4766 5.91761 52.407 6.10227 52.37 6.31818ZM60.2812 10.1193C59.571 10.1193 58.9858 9.97869 58.5256 9.69744C58.0653 9.41335 57.7429 9.01847 57.5582 8.51278C57.3736 8.00426 57.3381 7.41477 57.4517 6.74432C57.5597 6.07386 57.7898 5.4858 58.142 4.98011C58.4972 4.47159 58.9517 4.0767 59.5057 3.79545C60.0625 3.51136 60.696 3.36932 61.4062 3.36932C62.0483 3.36932 62.5838 3.4858 63.0128 3.71875C63.4446 3.94886 63.7528 4.27557 63.9375 4.69886C64.125 5.11932 64.1733 5.61364 64.0824 6.18182H61.9006C61.9261 5.84091 61.8707 5.57955 61.7344 5.39773C61.6009 5.21591 61.4062 5.125 61.1506 5.125C60.9403 5.125 60.7472 5.18466 60.571 5.30398C60.3977 5.42045 60.2486 5.59801 60.1236 5.83665C60.0014 6.07244 59.9119 6.36932 59.8551 6.72727C59.7983 7.08523 59.7912 7.38352 59.8338 7.62216C59.8793 7.85795 59.9673 8.03551 60.098 8.15483C60.2315 8.27131 60.4006 8.32955 60.6051 8.32955C60.7813 8.32955 60.9432 8.28977 61.0909 8.21023C61.2415 8.12784 61.3707 8.00852 61.4787 7.85227C61.5895 7.69318 61.6733 7.5 61.7301 7.27273H63.9119C63.804 7.85227 63.5866 8.35511 63.2599 8.78125C62.9332 9.20739 62.517 9.53693 62.0114 9.76989C61.5057 10.0028 60.929 10.1193 60.2812 10.1193Z" fill="#FFAE2D"/>
<path d="M5.71023 4L4.71433 3.90946L4.61519 5H5.71023V4ZM5.50568 3.33949L4.79855 4.04662L4.80486 4.05282L5.50568 3.33949ZM4.07386 3.18182L3.74787 2.23643L3.74278 2.23822L4.07386 3.18182ZM3.6946 3.41619L2.95657 2.74143L2.95125 2.74725L2.94602 2.75316L3.6946 3.41619ZM3.52841 3.76136L4.49855 4.0039L4.50738 3.96858L4.51362 3.9327L3.52841 3.76136ZM3.53267 4.04261L2.58399 4.35884L2.59044 4.37819L2.59767 4.39727L3.53267 4.04261ZM3.70739 4.26847L3.08269 5.04933L3.08891 5.05431L3.09521 5.05919L3.70739 4.26847ZM4.05256 4.4517L3.69733 5.38651L3.70345 5.38879L4.05256 4.4517ZM4.56818 4.59659L4.78771 3.62093L4.77771 3.61879L4.56818 4.59659ZM5.25 4.75L5.03048 5.72562L5.03559 5.72674L5.25 4.75ZM6.42188 5.15483L5.9525 6.03789L5.96202 6.04282L6.42188 5.15483ZM7.17188 5.7429L6.39101 6.36759L6.39101 6.36759L7.17188 5.7429ZM7.52983 6.50568L6.54959 6.70371L6.5516 6.71319L7.52983 6.50568ZM7.53409 7.42614L6.54839 7.25764L6.54796 7.26015L7.53409 7.42614ZM6.86506 8.88352L6.11381 8.2235L6.11381 8.2235L6.86506 8.88352ZM5.49716 9.79119L5.15123 8.85293L5.15123 8.85293L5.49716 9.79119ZM1.61932 9.76562L1.2224 10.6835L1.22839 10.686L1.61932 9.76562ZM0.477273 8.72585L-0.418261 9.17091L-0.414968 9.17741L0.477273 8.72585ZM0.306818 6.93182V5.93182H-0.542488L-0.679989 6.76992L0.306818 6.93182ZM2.55682 6.93182L3.54877 7.05845L3.69259 5.93182H2.55682V6.93182ZM2.64205 7.60511L3.53647 7.1579L3.53647 7.1579L2.64205 7.60511ZM3.08097 8.01847L2.65948 8.9253L2.65948 8.9253L3.08097 8.01847ZM4.92188 7.8054L4.19641 7.11714L4.19641 7.11714L4.92188 7.8054ZM5.11364 7.42614L4.12833 7.25478L4.1262 7.26815L5.11364 7.42614ZM4.67472 6.79972L4.25657 7.7081L4.25657 7.7081L4.67472 6.79972ZM3.9375 6.57386L3.71846 7.5496L3.72433 7.55088L3.9375 6.57386ZM3.10227 6.38636L2.87823 7.36096L2.88323 7.36208L3.10227 6.38636ZM1.02273 3.93182L0.0357941 3.77069L0.0356745 3.77142L1.02273 3.93182ZM1.70881 2.47443L0.959713 1.81197L0.959419 1.8123L1.70881 2.47443ZM3.11506 1.50284L3.49044 2.42971L3.49279 2.42875L3.11506 1.50284ZM6.77983 1.5071L6.33476 2.4026L6.33689 2.40365L6.77983 1.5071ZM7.80682 2.5L6.90763 2.9376L6.91001 2.94242L7.80682 2.5ZM7.97727 4V5H8.82302L8.9634 4.16598L7.97727 4ZM6.70612 4.09054C6.75159 3.59036 6.63357 3.04572 6.2065 2.62615L4.80486 4.05282C4.78748 4.03575 4.76994 4.01425 4.75461 3.98899C4.73932 3.96378 4.72922 3.93977 4.72302 3.91975C4.71079 3.88024 4.71787 3.87054 4.71433 3.90946L6.70612 4.09054ZM6.21279 2.63238C5.77061 2.1902 5.16739 2.09659 4.6875 2.09659V4.09659C4.74876 4.09659 4.79632 4.09985 4.83192 4.10425C4.86764 4.10865 4.88762 4.11374 4.89509 4.11596C4.90996 4.12038 4.86052 4.10854 4.79858 4.0466L6.21279 2.63238ZM4.6875 2.09659C4.37329 2.09659 4.05034 2.13214 3.74787 2.23645L4.39986 4.12719C4.42693 4.11785 4.51308 4.09659 4.6875 4.09659V2.09659ZM3.74278 2.23822C3.46671 2.33508 3.18525 2.49131 2.95657 2.74143L4.43263 4.09096C4.38578 4.14221 4.35715 4.14219 4.40495 4.12542L3.74278 2.23822ZM2.94602 2.75316C2.73519 2.99118 2.59774 3.27641 2.5432 3.59002L4.51362 3.9327C4.50978 3.95478 4.50189 3.98204 4.488 4.01088C4.47413 4.0397 4.45782 4.06271 4.44319 4.07923L2.94602 2.75316ZM2.55827 3.51883C2.49471 3.77306 2.48564 4.0638 2.58399 4.35884L4.48135 3.72638C4.52288 3.85097 4.51097 3.95422 4.49855 4.0039L2.55827 3.51883ZM2.59767 4.39727C2.70589 4.68255 2.89087 4.89588 3.08269 5.04933L4.33208 3.4876C4.35344 3.50469 4.42196 3.56745 4.46767 3.68796L2.59767 4.39727ZM3.09521 5.05919C3.28392 5.20529 3.49414 5.30927 3.69734 5.38649L4.40777 3.51692C4.36945 3.50236 4.34391 3.49027 4.32862 3.48215C4.31318 3.47396 4.31175 3.4717 4.31956 3.47774L3.09521 5.05919ZM3.70345 5.38879C3.9054 5.46402 4.1262 5.52458 4.35865 5.57439L4.77771 3.61879C4.61244 3.58337 4.48948 3.54734 4.40167 3.51462L3.70345 5.38879ZM4.34867 5.5722L5.03049 5.72561L5.46951 3.77439L4.78769 3.62098L4.34867 5.5722ZM5.03559 5.72674C5.44041 5.81561 5.73923 5.92447 5.95253 6.03784L6.89122 4.27182C6.47383 4.04996 5.99141 3.88894 5.46441 3.77326L5.03559 5.72674ZM5.96202 6.04282C6.18393 6.15774 6.31434 6.27176 6.39101 6.36759L7.95274 5.1182C7.66578 4.75949 7.29618 4.48146 6.88173 4.26683L5.96202 6.04282ZM6.39101 6.36759C6.47485 6.47239 6.52481 6.58083 6.54963 6.7037L8.51003 6.30766C8.42121 5.86803 8.23254 5.46795 7.95274 5.1182L6.39101 6.36759ZM6.5516 6.71319C6.58089 6.85128 6.58752 7.02874 6.54839 7.25764L8.51979 7.59463C8.5943 7.15876 8.59809 6.72258 8.50806 6.29818L6.5516 6.71319ZM6.54796 7.26015C6.47906 7.66951 6.32855 7.97908 6.11381 8.2235L7.6163 9.54355C8.10043 8.99251 8.39594 8.33049 8.52022 7.59212L6.54796 7.26015ZM6.11381 8.2235C5.88808 8.48043 5.57853 8.69539 5.15123 8.85293L5.84308 10.7295C6.54079 10.4722 7.14317 10.0821 7.6163 9.54355L6.11381 8.2235ZM5.15123 8.85293C4.72184 9.01124 4.19248 9.10227 3.54545 9.10227V11.1023C4.37571 11.1023 5.14747 10.9859 5.84308 10.7295L5.15123 8.85293ZM3.54545 9.10227C2.88372 9.10227 2.38259 9.00335 2.01025 8.84521L1.22839 10.686C1.91286 10.9768 2.69583 11.1023 3.54545 11.1023V9.10227ZM2.01623 8.84777C1.68301 8.70367 1.48935 8.51107 1.36951 8.27429L-0.414968 9.17741C-0.0632099 9.87245 0.504487 10.373 1.22241 10.6835L2.01623 8.84777ZM1.37278 8.28081C1.26426 8.06244 1.19483 7.6959 1.29363 7.09372L-0.679989 6.76992C-0.81983 7.62228 -0.775624 8.45176 -0.418237 9.17089L1.37278 8.28081ZM0.306818 7.93182H2.55682V5.93182H0.306818V7.93182ZM1.56487 6.80519C1.51367 7.20623 1.54343 7.64395 1.74762 8.05233L3.53647 7.1579C3.55884 7.20264 3.53178 7.1915 3.54877 7.05845L1.56487 6.80519ZM1.74762 8.05233C1.94936 8.45582 2.27326 8.74579 2.65948 8.9253L3.50245 7.11163C3.48836 7.10508 3.49295 7.10497 3.50554 7.11682C3.51149 7.12243 3.51774 7.12933 3.5236 7.13723C3.52945 7.1451 3.53368 7.15231 3.53647 7.1579L1.74762 8.05233ZM2.65948 8.9253C3.03126 9.0981 3.43725 9.15909 3.83523 9.15909V7.15909C3.63094 7.15909 3.53408 7.12633 3.50245 7.11163L2.65948 8.9253ZM3.83523 9.15909C4.1673 9.15909 4.50204 9.11914 4.81656 9.01103L4.1664 7.11965C4.11728 7.13654 4.01452 7.15909 3.83523 7.15909V9.15909ZM4.81656 9.01103C5.11208 8.90944 5.40643 8.74759 5.64734 8.49366L4.19641 7.11714C4.21119 7.10156 4.22088 7.09602 4.21845 7.09749C4.21542 7.09932 4.19991 7.10813 4.1664 7.11965L4.81656 9.01103ZM5.64734 8.49366C5.88222 8.24608 6.04448 7.93787 6.10108 7.58413L4.1262 7.26815C4.13091 7.2387 4.14083 7.20674 4.15624 7.17627C4.1714 7.14628 4.1873 7.12674 4.19641 7.11714L5.64734 8.49366ZM6.09885 7.59748C6.16171 7.23601 6.09984 6.85551 5.87751 6.522L4.2134 7.6314C4.17684 7.57656 4.14701 7.50844 4.13215 7.43228C4.11756 7.35754 4.12134 7.29554 4.12842 7.2548L6.09885 7.59748ZM5.87751 6.522C5.66227 6.19916 5.34803 6.00879 5.09286 5.89133L4.25657 7.7081C4.29893 7.7276 4.31047 7.73736 4.30311 7.73186C4.29588 7.72646 4.25633 7.6958 4.2134 7.6314L5.87751 6.522ZM5.09286 5.89134C4.82051 5.76597 4.49591 5.67217 4.15067 5.59685L3.72433 7.55088C4.00409 7.61192 4.17097 7.66869 4.25657 7.7081L5.09286 5.89134ZM4.15654 5.59815L3.32131 5.41065L2.88323 7.36208L3.71846 7.54958L4.15654 5.59815ZM3.32631 5.41178C2.70166 5.26818 2.34299 5.05584 2.14333 4.84867L0.703265 6.23656C1.25928 6.81348 2.01994 7.16363 2.87823 7.36094L3.32631 5.41178ZM2.14333 4.84867C2.04168 4.74321 1.93453 4.55531 2.00978 4.09221L0.0356745 3.77142C-0.110664 4.67196 0.0492277 5.55793 0.703265 6.23656L2.14333 4.84867ZM2.00966 4.09295C2.07081 3.71838 2.21907 3.4072 2.4582 3.13656L0.959419 1.8123C0.465592 2.37121 0.156458 3.03162 0.0357944 3.77069L2.00966 4.09295ZM2.4579 3.1369C2.71489 2.8463 3.0511 2.60764 3.49044 2.42971L2.73967 0.57597C2.04265 0.858267 1.44136 1.26734 0.959713 1.81197L2.4579 3.1369ZM3.49279 2.42875C3.92991 2.25043 4.43169 2.15341 5.01136 2.15341V0.153409C4.20467 0.153409 3.44225 0.289343 2.73732 0.576927L3.49279 2.42875ZM5.01136 2.15341C5.6102 2.15341 6.03649 2.25436 6.33476 2.4026L7.2249 0.611605C6.57431 0.288257 5.82162 0.153409 5.01136 0.153409V2.15341ZM6.33689 2.40365C6.64123 2.55401 6.80915 2.7352 6.90765 2.9376L8.70599 2.0624C8.38971 1.41252 7.87298 0.931786 7.22277 0.61055L6.33689 2.40365ZM6.91001 2.94242C7.0081 3.14126 7.06084 3.41996 6.99114 3.83402L8.9634 4.16598C9.08689 3.43231 9.02599 2.71101 8.70362 2.05758L6.91001 2.94242ZM7.97727 3H5.71023V5H7.97727V3ZM9.42401 9.69744L8.89637 10.5469L8.90256 10.5507L9.42401 9.69744ZM8.46094 8.51278L7.52099 8.85411L7.52161 8.8558L8.46094 8.51278ZM8.35014 6.74432L9.33676 6.90736L9.33676 6.90736L8.35014 6.74432ZM9.04474 4.98011L9.86528 5.55172L9.86677 5.54956L9.04474 4.98011ZM10.4041 3.79545L10.8568 4.68713L10.8604 4.68527L10.4041 3.79545ZM14.0518 3.79545L13.5242 4.64495L13.5304 4.64874L14.0518 3.79545ZM15.0192 4.98011L14.0792 5.32144L14.0816 5.32777L15.0192 4.98011ZM15.1342 6.74432L16.1209 6.90736L16.1209 6.90736L15.1342 6.74432ZM14.4354 8.51278L15.2537 9.08748L15.2552 9.08532L14.4354 8.51278ZM13.0717 9.69744L13.5263 10.5882L13.528 10.5873L13.0717 9.69744ZM12.0277 8.1804L11.411 7.39314L11.4046 7.39824L12.0277 8.1804ZM12.4624 7.60938L11.5658 7.16627L11.5618 7.17463L12.4624 7.60938ZM12.7308 6.72727L13.7172 6.89167L13.7174 6.89035L12.7308 6.72727ZM12.7564 5.84517L11.7691 6.00405L11.7694 6.00585L12.7564 5.84517ZM11.0178 5.84517L11.9163 6.28401L11.9183 6.27992L11.0178 5.84517ZM10.7536 6.72727L11.7399 6.89167L11.7402 6.89035L10.7536 6.72727ZM10.7237 7.60938L9.73464 7.75717L9.73642 7.76825L10.7237 7.60938ZM10.9709 8.1804L10.2408 8.86386L10.2486 8.87197L10.9709 8.1804ZM11.1797 9.11932C10.5966 9.11932 10.2063 9.00359 9.94546 8.84416L8.90256 10.5507C9.56212 10.9538 10.3423 11.1193 11.1797 11.1193V9.11932ZM9.95163 8.84797C9.68423 8.68188 9.50819 8.4653 9.40027 8.16977L7.52161 8.8558C7.78301 9.57163 8.24901 10.1448 8.89638 10.5469L9.95163 8.84797ZM9.40088 8.17146C9.28799 7.86056 9.2469 7.45115 9.33676 6.90736L7.36352 6.58128C7.2318 7.37839 7.26457 8.14796 7.52099 8.85411L9.40088 8.17146ZM9.33676 6.90736C9.42581 6.36851 9.60649 5.92319 9.86527 5.55172L8.22422 4.40851C7.77845 5.0484 7.49607 5.77922 7.36352 6.58128L9.33676 6.90736ZM9.86677 5.54956C10.1241 5.17803 10.4501 4.8936 10.8568 4.68712L9.95143 2.90379C9.25018 3.2598 8.66989 3.76515 8.22272 4.41066L9.86677 5.54956ZM10.8604 4.68527C11.2539 4.48349 11.7271 4.36932 12.3047 4.36932V2.36932C11.4561 2.36932 10.6623 2.53924 9.9478 2.90564L10.8604 4.68527ZM12.3047 4.36932C12.8828 4.36932 13.2677 4.48559 13.5242 4.64493L14.5795 2.94598C13.9212 2.53713 13.1413 2.36932 12.3047 2.36932V4.36932ZM13.5304 4.64874C13.7965 4.81133 13.9717 5.02537 14.0792 5.32143L15.9591 4.63879C15.6973 3.91781 15.2277 3.34208 14.5733 2.94217L13.5304 4.64874ZM14.0816 5.32777C14.1948 5.63317 14.2373 6.03849 14.1476 6.58128L16.1209 6.90736C16.2527 6.10923 16.2186 5.33842 15.9568 4.63246L14.0816 5.32777ZM14.1476 6.58128C14.0588 7.11877 13.8773 7.5654 13.6155 7.94024L15.2552 9.08532C15.7037 8.44313 15.9881 7.71078 16.1209 6.90736L14.1476 6.58128ZM13.617 7.93809C13.3559 8.30985 13.0261 8.59704 12.6154 8.80763L13.528 10.5873C14.2254 10.2297 14.8046 9.72708 15.2537 9.08748L13.617 7.93809ZM12.6172 8.80672C12.2263 9.00618 11.7554 9.11932 11.1797 9.11932V11.1193C12.0245 11.1193 12.8149 10.9512 13.5263 10.5882L12.6172 8.80672ZM11.4695 9.38068C11.9117 9.38068 12.3152 9.22988 12.6508 8.96256L11.4046 7.39824C11.3994 7.40241 11.4062 7.39599 11.4247 7.38936C11.4438 7.38252 11.4607 7.38068 11.4695 7.38068V9.38068ZM12.6444 8.96763C12.9629 8.71808 13.1944 8.39316 13.3629 8.04412L11.5618 7.17463C11.4917 7.31991 11.4334 7.37566 11.411 7.39317L12.6444 8.96763ZM13.3588 8.05246C13.5339 7.69833 13.6482 7.306 13.7172 6.89167L11.7444 6.56287C11.6998 6.83036 11.6352 7.0261 11.5659 7.16629L13.3588 8.05246ZM13.7174 6.89035C13.7853 6.47955 13.8061 6.06992 13.7434 5.68449L11.7694 6.00585C11.7862 6.10906 11.7899 6.28749 11.7442 6.5642L13.7174 6.89035ZM13.7437 5.68629C13.6836 5.31303 13.542 4.91416 13.2393 4.59072L11.7792 5.95757C11.7534 5.92999 11.7455 5.91061 11.7471 5.91427C11.7493 5.9194 11.7598 5.9462 11.7691 6.00405L13.7437 5.68629ZM13.2393 4.59072C12.9018 4.23026 12.4599 4.07386 12.0149 4.07386V6.07386C12.0076 6.07386 11.9699 6.07242 11.9164 6.05075C11.8604 6.02808 11.8129 5.99355 11.7792 5.95757L13.2393 4.59072ZM12.0149 4.07386C11.5732 4.07386 11.1711 4.2242 10.8358 4.48692L12.0691 6.06138C12.0769 6.05521 12.0726 6.06021 12.0563 6.066C12.0488 6.06869 12.0406 6.07082 12.0326 6.07219C12.0246 6.07356 12.0184 6.07386 12.0149 6.07386V4.07386ZM10.8358 4.48692C10.5172 4.73646 10.2857 5.06139 10.1172 5.41042L11.9183 6.27992C11.9884 6.13464 12.0467 6.07888 12.0691 6.06138L10.8358 4.48692ZM10.1192 5.40634C9.94729 5.75831 9.83537 6.15021 9.76694 6.5642L11.7402 6.89035C11.7854 6.61684 11.8496 6.42066 11.9163 6.28401L10.1192 5.40634ZM9.76716 6.56287C9.69921 6.97054 9.67764 7.37527 9.7347 7.75716L11.7127 7.46159C11.6959 7.34916 11.6943 7.16582 11.7399 6.89167L9.76716 6.56287ZM9.73642 7.76825C9.79649 8.14152 9.93807 8.54038 10.2409 8.86382L11.7009 7.49697C11.7267 7.52455 11.7346 7.54394 11.7331 7.54028C11.7308 7.53515 11.7203 7.50834 11.711 7.4505L9.73642 7.76825ZM10.2486 8.87197C10.5861 9.22454 11.0242 9.38068 11.4695 9.38068V7.38068C11.4769 7.38068 11.5131 7.38218 11.5642 7.40268C11.6174 7.42405 11.662 7.45622 11.6932 7.48883L10.2486 8.87197ZM18.5263 6.31818L17.5406 6.14958L17.5399 6.15378L18.5263 6.31818ZM17.9126 10V11H18.7598L18.899 10.1644L17.9126 10ZM15.5604 10L14.574 9.8356L14.3799 11H15.5604V10ZM16.6513 3.45455V2.45455H15.8042L15.6649 3.29015L16.6513 3.45455ZM18.8842 3.45455L19.871 3.61675L20.062 2.45455H18.8842V3.45455ZM18.6797 4.69886L17.6929 4.53666L17.5019 5.69886H18.6797V4.69886ZM18.7479 4.69886V5.69886H19.3678L19.6435 5.14364L18.7479 4.69886ZM19.6555 3.72301L20.1609 4.5859L20.1628 4.58479L19.6555 3.72301ZM22.1357 3.68466L22.7009 2.85973L22.7009 2.85973L22.1357 3.68466ZM22.7876 4.55398L23.7326 4.22687L23.7326 4.22687L22.7876 4.55398ZM22.8558 5.82386L21.8704 5.65376L21.8695 5.65881L22.8558 5.82386ZM22.157 10V11H23.0035L23.1432 10.1651L22.157 10ZM19.8047 10L18.8183 9.8356L18.6242 11H19.8047V10ZM20.4183 6.31818L21.4047 6.48258L21.4047 6.48258L20.4183 6.31818ZM20.299 5.5554L19.4827 6.1331L19.4887 6.14134L20.299 5.5554ZM19.1271 5.40625L19.5935 6.29084L19.5994 6.28773L19.1271 5.40625ZM18.7351 5.7642L17.9054 5.20602L17.903 5.2095L18.7351 5.7642ZM17.5399 6.15378L16.9262 9.8356L18.899 10.1644L19.5127 6.48258L17.5399 6.15378ZM17.9126 9H15.5604V11H17.9126V9ZM16.5468 10.1644L17.6377 3.61894L15.6649 3.29015L14.574 9.8356L16.5468 10.1644ZM16.6513 4.45455H18.8842V2.45455H16.6513V4.45455ZM17.8975 3.29234L17.6929 4.53666L19.6664 4.86107L19.871 3.61675L17.8975 3.29234ZM18.6797 5.69886H18.7479V3.69886H18.6797V5.69886ZM19.6435 5.14364C19.7654 4.89826 19.9333 4.71924 20.1609 4.5859L19.1501 2.86013C18.5823 3.19269 18.1451 3.66424 17.8522 4.25409L19.6435 5.14364ZM20.1628 4.58479C20.4035 4.44311 20.669 4.36932 20.9808 4.36932V2.36932C20.3267 2.36932 19.7087 2.53132 19.1483 2.86123L20.1628 4.58479ZM20.9808 4.36932C21.2919 4.36932 21.4668 4.43861 21.5704 4.50959L22.7009 2.85973C22.1908 2.51026 21.5959 2.36932 20.9808 2.36932V4.36932ZM21.5704 4.50959C21.6913 4.59241 21.7811 4.70312 21.8427 4.88109L23.7326 4.22687C23.5386 3.6662 23.1937 3.19736 22.7009 2.85973L21.5704 4.50959ZM21.8427 4.88109C21.9035 5.05686 21.9308 5.30366 21.8704 5.65376L23.8413 5.99397C23.9456 5.38952 23.9275 4.78973 23.7326 4.22687L21.8427 4.88109ZM21.8695 5.65881L21.1707 9.83495L23.1432 10.1651L23.8421 5.98892L21.8695 5.65881ZM22.157 9H19.8047V11H22.157V9ZM20.7911 10.1644L21.4047 6.48258L19.4319 6.15378L18.8183 9.8356L20.7911 10.1644ZM21.4047 6.48258C21.4831 6.01199 21.4574 5.45078 21.1094 4.96945L19.4887 6.14134C19.4714 6.11753 19.4593 6.09417 19.4514 6.07418C19.4437 6.05462 19.4414 6.04186 19.441 6.03913C19.4406 6.03674 19.442 6.04422 19.4415 6.06377C19.441 6.08339 19.4387 6.11298 19.4319 6.15378L21.4047 6.48258ZM21.1153 4.97773C20.7381 4.44474 20.1591 4.27841 19.6513 4.27841V6.27841C19.7033 6.27841 19.6919 6.28681 19.6459 6.26711C19.6218 6.25681 19.5918 6.24028 19.5607 6.2154C19.5294 6.19036 19.5031 6.16187 19.4827 6.13307L21.1153 4.97773ZM19.6513 4.27841C19.3055 4.27841 18.9672 4.35746 18.6549 4.52477L19.5994 6.28773C19.6052 6.28458 19.6164 6.27841 19.6513 6.27841V4.27841ZM18.6607 4.52168C18.3486 4.68625 18.0965 4.92196 17.9054 5.20603L19.5648 6.32238C19.5839 6.29395 19.5932 6.29102 19.5935 6.29082L18.6607 4.52168ZM17.903 5.2095C17.7099 5.49924 17.5968 5.82121 17.5406 6.14958L19.512 6.48679C19.5297 6.38334 19.5558 6.33598 19.5671 6.3189L17.903 5.2095ZM23.3011 10L22.3147 9.8356L22.1207 11H23.3011V10ZM24.392 3.45455V2.45455H23.5449L23.4057 3.29015L24.392 3.45455ZM26.7443 3.45455L27.7307 3.61894L27.9248 2.45455H26.7443V3.45455ZM25.6534 10V11H26.5005L26.6398 10.1644L25.6534 10ZM24.8991 2.45739L24.1632 3.13446L24.1678 3.13935L24.8991 2.45739ZM24.6818 1.69886L25.6669 1.87101L25.6674 1.86783L24.6818 1.69886ZM25.1506 0.940341L25.7722 1.72371L25.7773 1.71955L25.1506 0.940341ZM26.7869 0.940341L26.0456 1.61153L26.0502 1.61652L26.7869 0.940341ZM27 1.69886L26.0128 1.53904L26.0119 1.54536L27 1.69886ZM26.5398 2.45739L27.1707 3.23324L27.1716 3.23247L26.5398 2.45739ZM24.2875 10.1644L25.3784 3.61894L23.4057 3.29015L22.3147 9.8356L24.2875 10.1644ZM24.392 4.45455H26.7443V2.45455H24.392V4.45455ZM25.7579 3.29015L24.667 9.8356L26.6398 10.1644L27.7307 3.61894L25.7579 3.29015ZM25.6534 9H23.3011V11H25.6534V9ZM25.6705 1.77273C25.646 1.77273 25.6307 1.77071 25.623 1.7693C25.6156 1.76795 25.6144 1.76702 25.6174 1.76826C25.6206 1.76957 25.6249 1.77179 25.6288 1.77455C25.6327 1.77724 25.6332 1.77829 25.6305 1.77542L24.1678 3.13935C24.5743 3.5753 25.1078 3.77273 25.6705 3.77273V1.77273ZM25.6351 1.78033C25.6322 1.77721 25.6358 1.78052 25.6418 1.79086C25.6479 1.80152 25.6543 1.81581 25.6591 1.83252C25.6639 1.84916 25.6655 1.863 25.6659 1.87183C25.6662 1.88025 25.6652 1.88054 25.6669 1.87101L23.6967 1.52672C23.5937 2.11641 23.7503 2.68558 24.1632 3.13444L25.6351 1.78033ZM25.6674 1.86783C25.6726 1.83772 25.6823 1.795 25.7721 1.7237L24.529 0.156986C24.0961 0.500457 23.7933 0.963421 23.6962 1.5299L25.6674 1.86783ZM25.7773 1.71955C25.8714 1.64388 25.9426 1.625 26.0199 1.625V-0.375C25.4608 -0.375 24.9524 -0.183648 24.5238 0.161127L25.7773 1.71955ZM26.0199 1.625C26.0456 1.625 26.0615 1.62711 26.0691 1.6285C26.0764 1.62984 26.0768 1.6306 26.0722 1.62873C26.0674 1.62676 26.061 1.62344 26.0546 1.61891C26.0483 1.61444 26.0453 1.61119 26.0456 1.61152L27.5282 0.269165C27.1223 -0.179204 26.5821 -0.375 26.0199 -0.375V1.625ZM26.0502 1.61652C26.0502 1.61654 26.0488 1.61501 26.0465 1.61183C26.0441 1.60863 26.0411 1.6041 26.0378 1.59823C26.0307 1.58588 26.0245 1.57129 26.0202 1.55594C26.0109 1.52282 26.0173 1.51183 26.0129 1.53904L27.9871 1.85869C28.0802 1.28366 27.938 0.715597 27.5237 0.264159L26.0502 1.61652ZM26.0119 1.54536C26.0096 1.55992 26.0063 1.60213 25.9079 1.6823L27.1716 3.23247C27.596 2.8865 27.8995 2.42304 27.9881 1.85236L26.0119 1.54536ZM25.9089 1.68153C25.8213 1.75273 25.7524 1.77273 25.6705 1.77273V3.77273C26.2306 3.77273 26.7412 3.5825 27.1707 3.23324L25.9089 1.68153ZM28.2326 9.69744L27.7073 10.5484L27.7111 10.5507L28.2326 9.69744ZM27.2653 8.51278L26.3253 8.85411L26.3259 8.8558L27.2653 8.51278ZM27.1587 6.74432L28.1447 6.91143L28.146 6.90329L27.1587 6.74432ZM27.8491 4.98011L27.0292 4.40757L27.0285 4.40851L27.8491 4.98011ZM29.2127 3.79545L29.6654 4.68712L29.6672 4.68622L29.2127 3.79545ZM32.7198 3.71875L32.2426 4.59756L32.2495 4.60126L32.7198 3.71875ZM33.6445 4.69886L32.7279 5.09873L32.7312 5.10615L33.6445 4.69886ZM33.7894 6.18182V7.18182H34.6421L34.7769 6.33981L33.7894 6.18182ZM31.6076 6.18182L30.6104 6.10703L30.5298 7.18182H31.6076V6.18182ZM31.4414 5.39773L30.6354 5.98967L30.6414 5.99773L31.4414 5.39773ZM30.2781 5.30398L30.8359 6.13393L30.8389 6.1319L30.2781 5.30398ZM29.8306 5.83665L28.9448 5.37264L28.9427 5.37664L29.8306 5.83665ZM29.5621 6.72727L28.5745 6.5705L28.5745 6.57051L29.5621 6.72727ZM29.5408 7.62216L28.5563 7.79797L28.5589 7.81144L29.5408 7.62216ZM29.805 8.15483L29.1308 8.89332L29.1391 8.90095L29.1477 8.9084L29.805 8.15483ZM30.7979 8.21023L31.2721 9.09072L31.278 9.08749L30.7979 8.21023ZM31.1857 7.85227L30.3651 7.28077L30.363 7.28384L31.1857 7.85227ZM31.4371 7.27273V6.27273H30.6564L30.467 7.03019L31.4371 7.27273ZM33.619 7.27273L34.6021 7.45585L34.8224 6.27273H33.619V7.27273ZM32.967 8.78125L33.7606 9.38968L33.7606 9.38968L32.967 8.78125ZM31.7184 9.76989L32.1368 10.6781L32.1368 10.6781L31.7184 9.76989ZM29.9883 9.11932C29.4052 9.11932 29.0149 9.00359 28.754 8.84416L27.7111 10.5507C28.3707 10.9538 29.1509 11.1193 29.9883 11.1193V9.11932ZM28.7579 8.84651C28.4878 8.67981 28.3118 8.46338 28.2046 8.16977L26.3259 8.8558C26.588 9.57355 27.0569 10.1469 27.7073 10.5484L28.7579 8.84651ZM28.2052 8.17146C28.093 7.86231 28.0526 7.45445 28.1447 6.91143L26.1728 6.57721C26.0376 7.3751 26.0683 8.14622 26.3253 8.85411L28.2052 8.17146ZM28.146 6.90329C28.2326 6.36585 28.4116 5.92201 28.6696 5.55172L27.0285 4.40851C26.582 5.04958 26.3008 5.78187 26.1715 6.58535L28.146 6.90329ZM28.669 5.55265C28.9296 5.17935 29.258 4.89397 29.6654 4.68712L28.76 2.90379C28.0595 3.25944 27.4787 3.76384 27.0292 4.40757L28.669 5.55265ZM29.6672 4.68622C30.0651 4.48317 30.5394 4.36932 31.1133 4.36932V2.36932C30.2667 2.36932 29.4739 2.53955 28.7582 2.90469L29.6672 4.68622ZM31.1133 4.36932C31.6394 4.36932 31.999 4.46528 32.2426 4.59753L33.197 2.83997C32.5826 2.50632 31.8712 2.36932 31.1133 2.36932V4.36932ZM32.2495 4.60126C32.4952 4.73215 32.639 4.89483 32.728 5.09871L34.5611 4.29901C34.2807 3.65631 33.8081 3.16557 33.1901 2.83624L32.2495 4.60126ZM32.7312 5.10615C32.822 5.30975 32.8699 5.59941 32.802 6.02383L34.7769 6.33981C34.8908 5.62786 34.842 4.92889 34.5578 4.29158L32.7312 5.10615ZM33.7894 5.18182H31.6076V7.18182H33.7894V5.18182ZM32.6048 6.25661C32.6396 5.79214 32.5809 5.25045 32.2414 4.79773L30.6414 5.99773C30.6083 5.9536 30.6042 5.92432 30.607 5.93746C30.6104 5.95381 30.618 6.00608 30.6104 6.10703L32.6048 6.25661ZM32.2474 4.80582C31.8984 4.33051 31.3828 4.125 30.8576 4.125V6.125C30.8667 6.125 30.8301 6.12632 30.7721 6.0992C30.7098 6.07009 30.6627 6.02683 30.6354 5.98964L32.2474 4.80582ZM30.8576 4.125C30.4449 4.125 30.0568 4.24603 29.7172 4.47606L30.8389 6.1319C30.8446 6.12804 30.8481 6.12623 30.8495 6.12557C30.8508 6.12494 30.8509 6.12498 30.8501 6.12522C30.8493 6.12546 30.8489 6.1255 30.8494 6.12543C30.8499 6.12535 30.8525 6.125 30.8576 6.125V4.125ZM29.7202 4.47403C29.3745 4.70637 29.1252 5.02823 28.9448 5.37264L30.7164 6.30065C30.786 6.16779 30.835 6.13453 30.8359 6.13393L29.7202 4.47403ZM28.9427 5.37664C28.757 5.73512 28.6424 6.14261 28.5745 6.5705L30.5498 6.88404C30.5955 6.59603 30.6599 6.40977 30.7185 6.29665L28.9427 5.37664ZM28.5745 6.57051C28.508 6.98962 28.487 7.40931 28.5564 7.79795L30.5253 7.44637C30.5094 7.35773 30.5027 7.18083 30.5498 6.88404L28.5745 6.57051ZM28.5589 7.81144C28.6308 8.18422 28.793 8.58491 29.1308 8.89332L30.4793 7.41634C30.4969 7.43236 30.5103 7.44795 30.5201 7.46122C30.5297 7.47434 30.5349 7.48391 30.5368 7.48783C30.5403 7.49472 30.5319 7.48025 30.5228 7.43287L28.5589 7.81144ZM29.1477 8.9084C29.4911 9.208 29.9055 9.32955 30.3121 9.32955V7.32955C30.305 7.32955 30.3235 7.32863 30.3577 7.34041C30.3939 7.35289 30.4311 7.37398 30.4624 7.40126L29.1477 8.9084ZM30.3121 9.32955C30.6452 9.32955 30.9713 9.25265 31.272 9.0907L30.3238 7.32976C30.3235 7.32992 30.3239 7.32968 30.3249 7.3293C30.3259 7.32892 30.3268 7.32868 30.3272 7.32858C30.3285 7.32825 30.3243 7.32955 30.3121 7.32955V9.32955ZM31.278 9.08749C31.5793 8.92259 31.8215 8.69135 32.0085 8.4207L30.363 7.28384C30.3476 7.30613 30.3359 7.31824 30.3295 7.32415C30.3234 7.32979 30.3198 7.33195 30.3179 7.33296L31.278 9.08749ZM32.0063 8.42377C32.1993 8.14664 32.327 7.83649 32.4073 7.51526L30.467 7.03019C30.4337 7.16351 30.3937 7.23972 30.3651 7.28078L32.0063 8.42377ZM31.4371 8.27273H33.619V6.27273H31.4371V8.27273ZM32.6359 7.0896C32.5539 7.52985 32.3952 7.88343 32.1734 8.17282L33.7606 9.38968C34.1921 8.82679 34.4682 8.1747 34.6021 7.45585L32.6359 7.0896ZM32.1734 8.17282C31.9492 8.46518 31.6637 8.69406 31.3 8.86163L32.1368 10.6781C32.7844 10.3798 33.3313 9.94959 33.7606 9.38968L32.1734 8.17282ZM31.3 8.86163C30.9453 9.02504 30.515 9.11932 29.9883 9.11932V11.1193C30.757 11.1193 31.4802 10.9806 32.1368 10.6781L31.3 8.86163ZM39.7884 4L38.7925 3.90946L38.6933 5H39.7884V4ZM39.5838 3.33949L38.8767 4.04662L38.883 4.05282L39.5838 3.33949ZM38.152 3.18182L37.826 2.23643L37.8209 2.23822L38.152 3.18182ZM37.7727 3.41619L37.0347 2.74143L37.0294 2.74725L37.0241 2.75316L37.7727 3.41619ZM37.6065 3.76136L38.5767 4.0039L38.5855 3.96858L38.5917 3.9327L37.6065 3.76136ZM37.6108 4.04261L36.6621 4.35884L36.6686 4.37819L36.6758 4.39727L37.6108 4.04261ZM37.7855 4.26847L37.1608 5.04933L37.167 5.05431L37.1733 5.05919L37.7855 4.26847ZM38.1307 4.4517L37.7755 5.38651L37.7816 5.38879L38.1307 4.4517ZM38.6463 4.59659L38.8658 3.62093L38.8558 3.61879L38.6463 4.59659ZM39.3281 4.75L39.1086 5.72562L39.1137 5.72674L39.3281 4.75ZM40.5 5.15483L40.0306 6.03789L40.0401 6.04282L40.5 5.15483ZM41.25 5.7429L40.4691 6.36759L40.4691 6.36759L41.25 5.7429ZM41.608 6.50568L40.6277 6.70371L40.6297 6.71319L41.608 6.50568ZM41.6122 7.42614L40.6265 7.25764L40.6261 7.26015L41.6122 7.42614ZM40.9432 8.88352L40.1919 8.2235L40.1919 8.2235L40.9432 8.88352ZM39.5753 9.79119L39.2294 8.85293L39.2294 8.85293L39.5753 9.79119ZM35.6974 9.76562L35.3005 10.6835L35.3065 10.686L35.6974 9.76562ZM34.5554 8.72585L33.6599 9.17091L33.6632 9.17741L34.5554 8.72585ZM34.3849 6.93182V5.93182H33.5356L33.3981 6.76992L34.3849 6.93182ZM36.6349 6.93182L37.6269 7.05845L37.7707 5.93182H36.6349V6.93182ZM36.7202 7.60511L37.6146 7.1579L37.6146 7.1579L36.7202 7.60511ZM37.1591 8.01847L36.7376 8.9253L36.7376 8.9253L37.1591 8.01847ZM39 7.8054L38.2745 7.11714L38.2745 7.11714L39 7.8054ZM39.1918 7.42614L38.2065 7.25478L38.2043 7.26815L39.1918 7.42614ZM38.7528 6.79972L38.3347 7.7081L38.3347 7.7081L38.7528 6.79972ZM38.0156 6.57386L37.7966 7.5496L37.8025 7.55088L38.0156 6.57386ZM37.1804 6.38636L36.9564 7.36096L36.9614 7.36208L37.1804 6.38636ZM35.1009 3.93182L34.1139 3.77069L34.1138 3.77142L35.1009 3.93182ZM35.7869 2.47443L35.0378 1.81197L35.0375 1.8123L35.7869 2.47443ZM37.1932 1.50284L37.5686 2.42971L37.5709 2.42875L37.1932 1.50284ZM40.858 1.5071L40.4129 2.4026L40.415 2.40365L40.858 1.5071ZM41.8849 2.5L40.9858 2.9376L40.9881 2.94242L41.8849 2.5ZM42.0554 4V5H42.9011L43.0415 4.16598L42.0554 4ZM40.7842 4.09054C40.8297 3.59036 40.7117 3.04572 40.2846 2.62615L38.883 4.05282C38.8656 4.03575 38.8481 4.01425 38.8327 3.98899C38.8174 3.96378 38.8073 3.93977 38.8011 3.91975C38.7889 3.88024 38.796 3.87054 38.7925 3.90946L40.7842 4.09054ZM40.2909 2.63238C39.8487 2.1902 39.2455 2.09659 38.7656 2.09659V4.09659C38.8269 4.09659 38.8744 4.09985 38.91 4.10425C38.9458 4.10865 38.9657 4.11374 38.9732 4.11596C38.9881 4.12038 38.9386 4.10854 38.8767 4.0466L40.2909 2.63238ZM38.7656 2.09659C38.4514 2.09659 38.1285 2.13214 37.826 2.23645L38.478 4.12719C38.5051 4.11785 38.5912 4.09659 38.7656 4.09659V2.09659ZM37.8209 2.23822C37.5448 2.33508 37.2634 2.49131 37.0347 2.74143L38.5108 4.09096C38.4639 4.14221 38.4353 4.14219 38.4831 4.12542L37.8209 2.23822ZM37.0241 2.75316C36.8133 2.99118 36.6759 3.27641 36.6213 3.59002L38.5917 3.9327C38.5879 3.95478 38.58 3.98204 38.5661 4.01088C38.5523 4.0397 38.5359 4.06271 38.5213 4.07923L37.0241 2.75316ZM36.6364 3.51883C36.5728 3.77306 36.5638 4.0638 36.6621 4.35884L38.5595 3.72638C38.601 3.85097 38.5891 3.95422 38.5767 4.0039L36.6364 3.51883ZM36.6758 4.39727C36.784 4.68255 36.969 4.89588 37.1608 5.04933L38.4102 3.4876C38.4316 3.50469 38.5001 3.56745 38.5458 3.68796L36.6758 4.39727ZM37.1733 5.05919C37.362 5.20529 37.5723 5.30927 37.7755 5.38649L38.4859 3.51692C38.4476 3.50236 38.422 3.49027 38.4067 3.48215C38.3913 3.47396 38.3899 3.4717 38.3977 3.47774L37.1733 5.05919ZM37.7816 5.38879C37.9835 5.46402 38.2043 5.52458 38.4368 5.57439L38.8558 3.61879C38.6906 3.58337 38.5676 3.54734 38.4798 3.51462L37.7816 5.38879ZM38.4268 5.5722L39.1086 5.72561L39.5476 3.77439L38.8658 3.62098L38.4268 5.5722ZM39.1137 5.72674C39.5185 5.81561 39.8174 5.92447 40.0307 6.03784L40.9693 4.27182C40.552 4.04996 40.0695 3.88894 39.5425 3.77326L39.1137 5.72674ZM40.0401 6.04282C40.2621 6.15774 40.3925 6.27176 40.4691 6.36759L42.0309 5.1182C41.7439 4.75949 41.3743 4.48146 40.9599 4.26683L40.0401 6.04282ZM40.4691 6.36759C40.553 6.47239 40.6029 6.58083 40.6278 6.7037L42.5882 6.30766C42.4993 5.86803 42.3107 5.46795 42.0309 5.1182L40.4691 6.36759ZM40.6297 6.71319C40.659 6.85128 40.6656 7.02874 40.6265 7.25764L42.5979 7.59463C42.6724 7.15876 42.6762 6.72258 42.5862 6.29818L40.6297 6.71319ZM40.6261 7.26015C40.5572 7.66951 40.4067 7.97908 40.1919 8.2235L41.6944 9.54355C42.1786 8.99251 42.4741 8.33049 42.5983 7.59212L40.6261 7.26015ZM40.1919 8.2235C39.9662 8.48043 39.6567 8.69539 39.2294 8.85293L39.9212 10.7295C40.6189 10.4722 41.2213 10.0821 41.6944 9.54355L40.1919 8.2235ZM39.2294 8.85293C38.8 9.01124 38.2706 9.10227 37.6236 9.10227V11.1023C38.4538 11.1023 39.2256 10.9859 39.9212 10.7295L39.2294 8.85293ZM37.6236 9.10227C36.9618 9.10227 36.4607 9.00335 36.0884 8.84521L35.3065 10.686C35.991 10.9768 36.774 11.1023 37.6236 11.1023V9.10227ZM36.0944 8.84777C35.7611 8.70367 35.5675 8.51107 35.4476 8.27429L33.6632 9.17741C34.0149 9.87245 34.5826 10.373 35.3005 10.6835L36.0944 8.84777ZM35.4509 8.28081C35.3424 8.06244 35.273 7.6959 35.3718 7.09372L33.3981 6.76992C33.2583 7.62228 33.3025 8.45176 33.6599 9.17089L35.4509 8.28081ZM34.3849 7.93182H36.6349V5.93182H34.3849V7.93182ZM35.643 6.80519C35.5918 7.20623 35.6216 7.64395 35.8257 8.05233L37.6146 7.1579C37.637 7.20264 37.6099 7.1915 37.6269 7.05845L35.643 6.80519ZM35.8257 8.05233C36.0275 8.45582 36.3514 8.74579 36.7376 8.9253L37.5806 7.11163C37.5665 7.10508 37.5711 7.10497 37.5837 7.11682C37.5896 7.12243 37.5959 7.12933 37.6017 7.13723C37.6076 7.1451 37.6118 7.15231 37.6146 7.1579L35.8257 8.05233ZM36.7376 8.9253C37.1094 9.0981 37.5154 9.15909 37.9134 9.15909V7.15909C37.7091 7.15909 37.6122 7.12633 37.5806 7.11163L36.7376 8.9253ZM37.9134 9.15909C38.2454 9.15909 38.5802 9.11914 38.8947 9.01103L38.2445 7.11965C38.1954 7.13654 38.0926 7.15909 37.9134 7.15909V9.15909ZM38.8947 9.01103C39.1902 8.90944 39.4846 8.74759 39.7255 8.49366L38.2745 7.11714C38.2893 7.10156 38.299 7.09602 38.2966 7.09749C38.2935 7.09932 38.278 7.10813 38.2445 7.11965L38.8947 9.01103ZM39.7255 8.49366C39.9603 8.24608 40.1226 7.93787 40.1792 7.58413L38.2043 7.26815C38.209 7.2387 38.219 7.20674 38.2344 7.17627C38.2495 7.14628 38.2654 7.12674 38.2745 7.11714L39.7255 8.49366ZM40.177 7.59748C40.2398 7.23601 40.178 6.85551 39.9556 6.522L38.2915 7.6314C38.255 7.57656 38.2251 7.50844 38.2103 7.43228C38.1957 7.35754 38.1995 7.29554 38.2065 7.2548L40.177 7.59748ZM39.9556 6.522C39.7404 6.19916 39.4262 6.00879 39.171 5.89133L38.3347 7.7081C38.3771 7.7276 38.3886 7.73736 38.3812 7.73186C38.374 7.72646 38.3345 7.6958 38.2915 7.6314L39.9556 6.522ZM39.171 5.89134C38.8986 5.76597 38.574 5.67217 38.2288 5.59685L37.8025 7.55088C38.0822 7.61192 38.2491 7.66869 38.3347 7.7081L39.171 5.89134ZM38.2347 5.59815L37.3994 5.41065L36.9614 7.36208L37.7966 7.54958L38.2347 5.59815ZM37.4044 5.41178C36.7798 5.26818 36.4211 5.05584 36.2215 4.84867L34.7814 6.23656C35.3374 6.81348 36.0981 7.16363 36.9564 7.36094L37.4044 5.41178ZM36.2215 4.84867C36.1198 4.74321 36.0127 4.55531 36.0879 4.09221L34.1138 3.77142C33.9675 4.67196 34.1274 5.55793 34.7814 6.23656L36.2215 4.84867ZM36.0878 4.09295C36.1489 3.71838 36.2972 3.4072 36.5363 3.13656L35.0375 1.8123C34.5437 2.37121 34.2346 3.03162 34.1139 3.77069L36.0878 4.09295ZM36.536 3.1369C36.793 2.8463 37.1292 2.60764 37.5686 2.42971L36.8178 0.57597C36.1208 0.858267 35.5195 1.26734 35.0378 1.81197L36.536 3.1369ZM37.5709 2.42875C38.008 2.25043 38.5098 2.15341 39.0895 2.15341V0.153409C38.2828 0.153409 37.5204 0.289343 36.8154 0.576927L37.5709 2.42875ZM39.0895 2.15341C39.6883 2.15341 40.1146 2.25436 40.4129 2.4026L41.303 0.611605C40.6524 0.288257 39.8997 0.153409 39.0895 0.153409V2.15341ZM40.415 2.40365C40.7194 2.55401 40.8873 2.7352 40.9858 2.9376L42.7841 2.0624C42.4678 1.41252 41.9511 0.931786 41.3009 0.61055L40.415 2.40365ZM40.9881 2.94242C41.0862 3.14126 41.139 3.41996 41.0693 3.83402L43.0415 4.16598C43.165 3.43231 43.1041 2.71101 42.7817 2.05758L40.9881 2.94242ZM42.0554 3H39.7884V5H42.0554V3ZM42.3899 12.3906L42.5678 11.4065L42.5562 11.4046L42.3899 12.3906ZM41.772 12.2244L40.8686 11.7958L40.4135 12.7549L41.398 13.1519L41.772 12.2244ZM42.5646 10.554L42.9158 9.61765L42.0552 9.29493L41.6612 10.1253L42.5646 10.554ZM43.0675 10.6861L42.9389 11.6778L42.9412 11.6781L43.0675 10.6861ZM43.4808 10.652L43.1445 9.71025L43.1445 9.71025L43.4808 10.652ZM43.7749 10.4091L42.9337 9.86833L42.9337 9.86833L43.7749 10.4091ZM43.8516 10.2898L44.6927 10.8305L44.9026 10.504L44.8373 10.1214L43.8516 10.2898ZM42.6839 3.45455V2.45455H41.4986L41.6982 3.62293L42.6839 3.45455ZM45.0533 3.45455L46.0511 3.3889L45.9896 2.45455H45.0533V3.45455ZM45.3516 7.98864L44.3537 8.05428L44.4152 8.98864H45.3516V7.98864ZM45.4197 7.98864V8.98864H46.0942L46.3469 8.36333L45.4197 7.98864ZM47.2521 3.45455V2.45455H46.5777L46.325 3.07985L47.2521 3.45455ZM49.8089 3.45455L50.7025 3.90348L51.4305 2.45455H49.8089V3.45455ZM46.2464 10.5455L47.1395 10.9955L47.14 10.9944L46.2464 10.5455ZM45.5646 11.517L44.8398 10.8281L44.8329 10.8355L45.5646 11.517ZM44.5675 12.2031L44.1768 11.2826L44.1768 11.2826L44.5675 12.2031ZM43.1527 11.4545C42.9316 11.4545 42.7375 11.4372 42.5678 11.4066L42.2121 13.3747C42.5139 13.4292 42.8283 13.4545 43.1527 13.4545V11.4545ZM42.5562 11.4046C42.3742 11.3738 42.2406 11.3352 42.146 11.297L41.398 13.1519C41.6557 13.2558 41.9341 13.3279 42.2236 13.3767L42.5562 11.4046ZM42.6755 12.6531L43.4681 10.9827L41.6612 10.1253L40.8686 11.7958L42.6755 12.6531ZM42.2135 11.4903C42.4498 11.5789 42.693 11.6459 42.9389 11.6778L43.196 9.69438C43.1351 9.68648 43.0431 9.6654 42.9158 9.61765L42.2135 11.4903ZM42.9412 11.6781C43.2163 11.7131 43.5181 11.7005 43.8172 11.5937L43.1445 9.71025C43.2049 9.68866 43.2311 9.69884 43.1937 9.69408L42.9412 11.6781ZM43.8172 11.5937C44.1692 11.468 44.435 11.2315 44.616 10.9498L42.9337 9.86833C42.9447 9.85111 42.9678 9.82072 43.0069 9.78834C43.0471 9.75514 43.0944 9.72812 43.1445 9.71025L43.8172 11.5937ZM44.616 10.9498L44.6927 10.8305L43.0104 9.74902L42.9337 9.86833L44.616 10.9498ZM44.8373 10.1214L43.6697 3.28616L41.6982 3.62293L42.8658 10.4582L44.8373 10.1214ZM42.6839 4.45455H45.0533V2.45455H42.6839V4.45455ZM44.0554 3.52019L44.3537 8.05428L46.3494 7.92299L46.0511 3.3889L44.0554 3.52019ZM45.3516 8.98864H45.4197V6.98864H45.3516V8.98864ZM46.3469 8.36333L48.1793 3.82924L46.325 3.07985L44.4926 7.61394L46.3469 8.36333ZM47.2521 4.45455H49.8089V2.45455H47.2521V4.45455ZM48.9154 3.00561L45.3529 10.0965L47.14 10.9944L50.7025 3.90348L48.9154 3.00561ZM45.3534 10.0954C45.2148 10.3706 45.0437 10.6136 44.8398 10.8281L46.2895 12.206C46.631 11.8466 46.9145 11.4419 47.1395 10.9955L45.3534 10.0954ZM44.8329 10.8355C44.6664 11.0142 44.4533 11.1652 44.1768 11.2826L44.9582 13.1236C45.4714 12.9058 45.9231 12.5994 46.2964 12.1986L44.8329 10.8355ZM44.1768 11.2826C43.9346 11.3854 43.6026 11.4545 43.1527 11.4545V13.4545C43.7994 13.4545 44.4105 13.3561 44.9582 13.1236L44.1768 11.2826ZM52.37 6.31818L51.3843 6.14958L51.3836 6.15378L52.37 6.31818ZM51.7564 10V11H52.6035L52.7428 10.1644L51.7564 10ZM49.4041 10L48.4177 9.8356L48.2237 11H49.4041V10ZM50.495 3.45455V2.45455H49.6479L49.5086 3.29015L50.495 3.45455ZM52.728 3.45455L53.7147 3.61675L53.9058 2.45455H52.728V3.45455ZM52.5234 4.69886L51.5367 4.53666L51.3456 5.69886H52.5234V4.69886ZM52.5916 4.69886V5.69886H53.2115L53.4873 5.14364L52.5916 4.69886ZM53.4993 3.72301L54.0047 4.5859L54.0066 4.58479L53.4993 3.72301ZM55.9794 3.68466L56.5446 2.85973L56.5446 2.85973L55.9794 3.68466ZM56.6314 4.55398L57.5764 4.22687L57.5764 4.22687L56.6314 4.55398ZM56.6996 5.82386L55.7141 5.65376L55.7133 5.65881L56.6996 5.82386ZM56.0007 10V11H56.8473L56.987 10.1651L56.0007 10ZM53.6484 10L52.662 9.8356L52.468 11H53.6484V10ZM54.2621 6.31818L55.2485 6.48258L55.2485 6.48258L54.2621 6.31818ZM54.1428 5.5554L53.3264 6.1331L53.3324 6.14134L54.1428 5.5554ZM52.9709 5.40625L53.4373 6.29084L53.4431 6.28773L52.9709 5.40625ZM52.5788 5.7642L51.7491 5.20602L51.7468 5.2095L52.5788 5.7642ZM51.3836 6.15378L50.77 9.8356L52.7428 10.1644L53.3564 6.48258L51.3836 6.15378ZM51.7564 9H49.4041V11H51.7564V9ZM50.3905 10.1644L51.4814 3.61894L49.5086 3.29015L48.4177 9.8356L50.3905 10.1644ZM50.495 4.45455H52.728V2.45455H50.495V4.45455ZM51.7412 3.29234L51.5367 4.53666L53.5102 4.86107L53.7147 3.61675L51.7412 3.29234ZM52.5234 5.69886H52.5916V3.69886H52.5234V5.69886ZM53.4873 5.14364C53.6091 4.89826 53.777 4.71924 54.0047 4.5859L52.9939 2.86013C52.4261 3.19269 51.9889 3.66424 51.696 4.25409L53.4873 5.14364ZM54.0066 4.58479C54.2473 4.44311 54.5127 4.36932 54.8246 4.36932V2.36932C54.1705 2.36932 53.5525 2.53132 52.992 2.86123L54.0066 4.58479ZM54.8246 4.36932C55.1356 4.36932 55.3106 4.43861 55.4142 4.50959L56.5446 2.85973C56.0346 2.51026 55.4397 2.36932 54.8246 2.36932V4.36932ZM55.4142 4.50959C55.535 4.59241 55.6248 4.70312 55.6864 4.88109L57.5764 4.22687C57.3823 3.6662 57.0374 3.19736 56.5446 2.85973L55.4142 4.50959ZM55.6864 4.88109C55.7473 5.05686 55.7746 5.30366 55.7141 5.65376L57.685 5.99397C57.7893 5.38952 57.7712 4.78973 57.5764 4.22687L55.6864 4.88109ZM55.7133 5.65881L55.0144 9.83495L56.987 10.1651L57.6859 5.98892L55.7133 5.65881ZM56.0007 9H53.6484V11H56.0007V9ZM54.6348 10.1644L55.2485 6.48258L53.2757 6.15378L52.662 9.8356L54.6348 10.1644ZM55.2485 6.48258C55.3269 6.01199 55.3011 5.45078 54.9531 4.96945L53.3324 6.14134C53.3152 6.11753 53.3031 6.09417 53.2952 6.07418C53.2875 6.05462 53.2852 6.04186 53.2847 6.03913C53.2844 6.03674 53.2858 6.04422 53.2853 6.06377C53.2848 6.08339 53.2825 6.11298 53.2757 6.15378L55.2485 6.48258ZM54.959 4.97773C54.5818 4.44474 54.0028 4.27841 53.495 4.27841V6.27841C53.5471 6.27841 53.5357 6.28681 53.4896 6.26711C53.4655 6.25681 53.4356 6.24028 53.4045 6.2154C53.3731 6.19036 53.3469 6.16187 53.3265 6.13307L54.959 4.97773ZM53.495 4.27841C53.1492 4.27841 52.811 4.35746 52.4987 4.52477L53.4431 6.28773C53.449 6.28458 53.4602 6.27841 53.495 6.27841V4.27841ZM52.5045 4.52168C52.1924 4.68625 51.9402 4.92196 51.7491 5.20603L53.4086 6.32238C53.4277 6.29395 53.4369 6.29102 53.4373 6.29082L52.5045 4.52168ZM51.7468 5.2095C51.5536 5.49924 51.4405 5.82121 51.3843 6.14958L53.3557 6.48679C53.3734 6.38334 53.3995 6.33598 53.4109 6.3189L51.7468 5.2095ZM58.5256 9.69744L58.0003 10.5484L58.0041 10.5507L58.5256 9.69744ZM57.5582 8.51278L56.6183 8.85411L56.6189 8.8558L57.5582 8.51278ZM57.4517 6.74432L58.4377 6.91143L58.439 6.90329L57.4517 6.74432ZM58.142 4.98011L57.3222 4.40757L57.3215 4.40851L58.142 4.98011ZM59.5057 3.79545L59.9584 4.68712L59.9602 4.68622L59.5057 3.79545ZM63.0128 3.71875L62.5355 4.59756L62.5425 4.60126L63.0128 3.71875ZM63.9375 4.69886L63.0209 5.09873L63.0242 5.10615L63.9375 4.69886ZM64.0824 6.18182V7.18182H64.9351L65.0698 6.33981L64.0824 6.18182ZM61.9006 6.18182L60.9034 6.10703L60.8228 7.18182H61.9006V6.18182ZM61.7344 5.39773L60.9283 5.98967L60.9344 5.99773L61.7344 5.39773ZM60.571 5.30398L61.1289 6.13393L61.1319 6.1319L60.571 5.30398ZM60.1236 5.83665L59.2377 5.37264L59.2357 5.37664L60.1236 5.83665ZM59.8551 6.72727L58.8675 6.5705L58.8675 6.57051L59.8551 6.72727ZM59.8338 7.62216L58.8493 7.79797L58.8519 7.81144L59.8338 7.62216ZM60.098 8.15483L59.4237 8.89332L59.4321 8.90095L59.4406 8.9084L60.098 8.15483ZM61.0909 8.21023L61.565 9.09072L61.5709 9.08749L61.0909 8.21023ZM61.4787 7.85227L60.6581 7.28077L60.656 7.28384L61.4787 7.85227ZM61.7301 7.27273V6.27273H60.9493L60.76 7.03019L61.7301 7.27273ZM63.9119 7.27273L64.895 7.45585L65.1154 6.27273H63.9119V7.27273ZM63.2599 8.78125L64.0535 9.38968L64.0535 9.38968L63.2599 8.78125ZM62.0114 9.76989L62.4298 10.6781L62.4298 10.6781L62.0114 9.76989ZM60.2812 9.11932C59.6981 9.11932 59.3079 9.00359 59.047 8.84416L58.0041 10.5507C58.6637 10.9538 59.4439 11.1193 60.2812 11.1193V9.11932ZM59.0508 8.84651C58.7808 8.67981 58.6048 8.46338 58.4976 8.16977L56.6189 8.8558C56.881 9.57355 57.3499 10.1469 58.0003 10.5484L59.0508 8.84651ZM58.4982 8.17146C58.3859 7.86231 58.3456 7.45445 58.4376 6.91143L56.4658 6.57721C56.3305 7.3751 56.3612 8.14622 56.6183 8.85411L58.4982 8.17146ZM58.439 6.90329C58.5255 6.36585 58.7046 5.92201 58.9626 5.55172L57.3215 4.40851C56.8749 5.04958 56.5938 5.78187 56.4644 6.58535L58.439 6.90329ZM58.9619 5.55265C59.2226 5.17935 59.5509 4.89397 59.9584 4.68712L59.053 2.90379C58.3525 3.25944 57.7717 3.76384 57.3222 4.40757L58.9619 5.55265ZM59.9602 4.68622C60.3581 4.48317 60.8323 4.36932 61.4062 4.36932V2.36932C60.5597 2.36932 59.7669 2.53955 59.0512 2.90469L59.9602 4.68622ZM61.4062 4.36932C61.9324 4.36932 62.292 4.46528 62.5356 4.59753L63.49 2.83997C62.8756 2.50632 62.1642 2.36932 61.4062 2.36932V4.36932ZM62.5425 4.60126C62.7881 4.73215 62.932 4.89483 63.0209 5.09871L64.8541 4.29901C64.5737 3.65631 64.1011 3.16557 63.4831 2.83624L62.5425 4.60126ZM63.0242 5.10615C63.115 5.30975 63.1629 5.59941 63.0949 6.02383L65.0698 6.33981C65.1837 5.62786 65.135 4.92889 64.8508 4.29158L63.0242 5.10615ZM64.0824 5.18182H61.9006V7.18182H64.0824V5.18182ZM62.8978 6.25661C62.9326 5.79214 62.8739 5.25045 62.5344 4.79773L60.9344 5.99773C60.9013 5.9536 60.8971 5.92432 60.8999 5.93746C60.9034 5.95381 60.9109 6.00608 60.9034 6.10703L62.8978 6.25661ZM62.5404 4.80582C62.1913 4.33051 61.6758 4.125 61.1506 4.125V6.125C61.1597 6.125 61.1231 6.12632 61.065 6.0992C61.0027 6.07009 60.9557 6.02683 60.9284 5.98964L62.5404 4.80582ZM61.1506 4.125C60.7379 4.125 60.3497 4.24603 60.0102 4.47606L61.1319 6.1319C61.1376 6.12804 61.1411 6.12623 61.1424 6.12557C61.1437 6.12494 61.1439 6.12498 61.1431 6.12522C61.1423 6.12546 61.1419 6.1255 61.1424 6.12543C61.1429 6.12535 61.1455 6.125 61.1506 6.125V4.125ZM60.0132 4.47403C59.6675 4.70637 59.4182 5.02823 59.2377 5.37264L61.0094 6.30065C61.079 6.16779 61.128 6.13453 61.1289 6.13393L60.0132 4.47403ZM59.2357 5.37664C59.0499 5.73512 58.9354 6.14261 58.8675 6.5705L60.8427 6.88404C60.8885 6.59603 60.9529 6.40977 61.0115 6.29665L59.2357 5.37664ZM58.8675 6.57051C58.801 6.98962 58.78 7.40931 58.8494 7.79795L60.8182 7.44637C60.8024 7.35773 60.7956 7.18083 60.8427 6.88404L58.8675 6.57051ZM58.8519 7.81144C58.9237 8.18422 59.086 8.58491 59.4237 8.89332L60.7723 7.41634C60.7898 7.43236 60.8033 7.44795 60.813 7.46122C60.8227 7.47434 60.8279 7.48391 60.8298 7.48783C60.8332 7.49472 60.8249 7.48025 60.8157 7.43287L58.8519 7.81144ZM59.4406 8.9084C59.7841 9.208 60.1985 9.32955 60.6051 9.32955V7.32955C60.598 7.32955 60.6165 7.32863 60.6507 7.34041C60.6869 7.35289 60.7241 7.37398 60.7554 7.40126L59.4406 8.9084ZM60.6051 9.32955C60.9382 9.32955 61.2642 9.25265 61.565 9.0907L60.6168 7.32976C60.6165 7.32992 60.6169 7.32968 60.6179 7.3293C60.6189 7.32892 60.6197 7.32868 60.6201 7.32858C60.6215 7.32825 60.6173 7.32955 60.6051 7.32955V9.32955ZM61.5709 9.08749C61.8723 8.92259 62.1144 8.69135 62.3014 8.4207L60.656 7.28384C60.6406 7.30613 60.6289 7.31824 60.6225 7.32415C60.6164 7.32979 60.6127 7.33195 60.6109 7.33296L61.5709 9.08749ZM62.2993 8.42377C62.4923 8.14664 62.6199 7.83649 62.7003 7.51526L60.76 7.03019C60.7266 7.16351 60.6867 7.23972 60.6581 7.28078L62.2993 8.42377ZM61.7301 8.27273H63.9119V6.27273H61.7301V8.27273ZM62.9288 7.0896C62.8468 7.52985 62.6882 7.88343 62.4663 8.17282L64.0535 9.38968C64.4851 8.82679 64.7611 8.1747 64.895 7.45585L62.9288 7.0896ZM62.4663 8.17282C62.2422 8.46518 61.9567 8.69406 61.593 8.86163L62.4298 10.6781C63.0774 10.3798 63.6243 9.94959 64.0535 9.38968L62.4663 8.17282ZM61.593 8.86163C61.2382 9.02504 60.808 9.11932 60.2812 9.11932V11.1193C61.05 11.1193 61.7731 10.9806 62.4298 10.6781L61.593 8.86163Z" fill="black" mask="url(#path-1-outside-1_13_2)"/>
</svg>
